<mxfile host="app.diagrams.net" agent="Mozilla/5.0 (Windows NT 10.0; Win64; x64) AppleWebKit/537.36 (KHTML, like Gecko) Chrome/127.0.0.0 Safari/537.36" version="24.7.7">
  <diagram id="C5RBs43oDa-KdzZeNtuy" name="Page-1">
    <mxGraphModel dx="926" dy="499" grid="1" gridSize="10" guides="1" tooltips="1" connect="1" arrows="1" fold="1" page="1" pageScale="1" pageWidth="827" pageHeight="1169" math="0" shadow="0">
      <root>
        <mxCell id="WIyWlLk6GJQsqaUBKTNV-0" />
        <mxCell id="WIyWlLk6GJQsqaUBKTNV-1" parent="WIyWlLk6GJQsqaUBKTNV-0" />
        <mxCell id="HBz560siM8xq41bLwgWJ-9" style="edgeStyle=orthogonalEdgeStyle;rounded=0;orthogonalLoop=1;jettySize=auto;html=1;entryX=0.5;entryY=0;entryDx=0;entryDy=0;" edge="1" parent="WIyWlLk6GJQsqaUBKTNV-1" source="WIyWlLk6GJQsqaUBKTNV-3" target="HBz560siM8xq41bLwgWJ-4">
          <mxGeometry relative="1" as="geometry" />
        </mxCell>
        <mxCell id="WIyWlLk6GJQsqaUBKTNV-3" value="Read the encrypted video chunks" style="rounded=1;whiteSpace=wrap;html=1;fontSize=12;glass=0;strokeWidth=1;shadow=0;" parent="WIyWlLk6GJQsqaUBKTNV-1" vertex="1">
          <mxGeometry x="340" y="140" width="120" height="40" as="geometry" />
        </mxCell>
        <mxCell id="HBz560siM8xq41bLwgWJ-7" style="edgeStyle=orthogonalEdgeStyle;rounded=0;orthogonalLoop=1;jettySize=auto;html=1;exitX=0.5;exitY=1;exitDx=0;exitDy=0;entryX=0;entryY=0.5;entryDx=0;entryDy=0;" edge="1" parent="WIyWlLk6GJQsqaUBKTNV-1" source="HBz560siM8xq41bLwgWJ-1" target="HBz560siM8xq41bLwgWJ-5">
          <mxGeometry relative="1" as="geometry" />
        </mxCell>
        <mxCell id="HBz560siM8xq41bLwgWJ-1" value="Start" style="ellipse;whiteSpace=wrap;html=1;" vertex="1" parent="WIyWlLk6GJQsqaUBKTNV-1">
          <mxGeometry x="30" y="60" width="80" height="60" as="geometry" />
        </mxCell>
        <mxCell id="HBz560siM8xq41bLwgWJ-19" style="edgeStyle=orthogonalEdgeStyle;rounded=0;orthogonalLoop=1;jettySize=auto;html=1;" edge="1" parent="WIyWlLk6GJQsqaUBKTNV-1" source="HBz560siM8xq41bLwgWJ-4" target="HBz560siM8xq41bLwgWJ-10">
          <mxGeometry relative="1" as="geometry" />
        </mxCell>
        <mxCell id="HBz560siM8xq41bLwgWJ-4" value="Retrieve Encrypted Master AES Key and GUID from first encrypted chunk" style="rounded=0;whiteSpace=wrap;html=1;" vertex="1" parent="WIyWlLk6GJQsqaUBKTNV-1">
          <mxGeometry x="550" y="230" width="160" height="80" as="geometry" />
        </mxCell>
        <mxCell id="HBz560siM8xq41bLwgWJ-8" style="edgeStyle=orthogonalEdgeStyle;rounded=0;orthogonalLoop=1;jettySize=auto;html=1;exitX=1;exitY=0.5;exitDx=0;exitDy=0;" edge="1" parent="WIyWlLk6GJQsqaUBKTNV-1" source="HBz560siM8xq41bLwgWJ-5" target="WIyWlLk6GJQsqaUBKTNV-3">
          <mxGeometry relative="1" as="geometry" />
        </mxCell>
        <mxCell id="HBz560siM8xq41bLwgWJ-5" value="Retrieve RSA Private Key" style="rounded=0;whiteSpace=wrap;html=1;" vertex="1" parent="WIyWlLk6GJQsqaUBKTNV-1">
          <mxGeometry x="140" y="130" width="120" height="60" as="geometry" />
        </mxCell>
        <mxCell id="HBz560siM8xq41bLwgWJ-18" style="edgeStyle=orthogonalEdgeStyle;rounded=0;orthogonalLoop=1;jettySize=auto;html=1;entryX=1;entryY=0.5;entryDx=0;entryDy=0;" edge="1" parent="WIyWlLk6GJQsqaUBKTNV-1" source="HBz560siM8xq41bLwgWJ-10" target="HBz560siM8xq41bLwgWJ-14">
          <mxGeometry relative="1" as="geometry" />
        </mxCell>
        <mxCell id="HBz560siM8xq41bLwgWJ-10" value="Decrypt master AES key using RSA Private key" style="whiteSpace=wrap;html=1;aspect=fixed;" vertex="1" parent="WIyWlLk6GJQsqaUBKTNV-1">
          <mxGeometry x="380" y="225" width="90" height="90" as="geometry" />
        </mxCell>
        <mxCell id="HBz560siM8xq41bLwgWJ-20" style="edgeStyle=orthogonalEdgeStyle;rounded=0;orthogonalLoop=1;jettySize=auto;html=1;" edge="1" parent="WIyWlLk6GJQsqaUBKTNV-1" source="HBz560siM8xq41bLwgWJ-11" target="HBz560siM8xq41bLwgWJ-12">
          <mxGeometry relative="1" as="geometry" />
        </mxCell>
        <mxCell id="HBz560siM8xq41bLwgWJ-11" value="Generate Dynamic Key using ECC equation for i=2" style="rounded=0;whiteSpace=wrap;html=1;" vertex="1" parent="WIyWlLk6GJQsqaUBKTNV-1">
          <mxGeometry x="160" y="420" width="120" height="60" as="geometry" />
        </mxCell>
        <mxCell id="HBz560siM8xq41bLwgWJ-28" value="" style="edgeStyle=orthogonalEdgeStyle;rounded=0;orthogonalLoop=1;jettySize=auto;html=1;" edge="1" parent="WIyWlLk6GJQsqaUBKTNV-1" source="HBz560siM8xq41bLwgWJ-12" target="HBz560siM8xq41bLwgWJ-27">
          <mxGeometry relative="1" as="geometry" />
        </mxCell>
        <mxCell id="HBz560siM8xq41bLwgWJ-12" value="key 2" style="rounded=0;whiteSpace=wrap;html=1;" vertex="1" parent="WIyWlLk6GJQsqaUBKTNV-1">
          <mxGeometry x="350" y="420" width="120" height="60" as="geometry" />
        </mxCell>
        <mxCell id="HBz560siM8xq41bLwgWJ-17" style="edgeStyle=orthogonalEdgeStyle;rounded=0;orthogonalLoop=1;jettySize=auto;html=1;" edge="1" parent="WIyWlLk6GJQsqaUBKTNV-1" source="HBz560siM8xq41bLwgWJ-13" target="HBz560siM8xq41bLwgWJ-11">
          <mxGeometry relative="1" as="geometry" />
        </mxCell>
        <mxCell id="HBz560siM8xq41bLwgWJ-13" value="For each encrypted chunk" style="shape=process;whiteSpace=wrap;html=1;backgroundOutline=1;" vertex="1" parent="WIyWlLk6GJQsqaUBKTNV-1">
          <mxGeometry x="160" y="330" width="120" height="60" as="geometry" />
        </mxCell>
        <mxCell id="HBz560siM8xq41bLwgWJ-15" style="edgeStyle=orthogonalEdgeStyle;rounded=0;orthogonalLoop=1;jettySize=auto;html=1;entryX=0;entryY=0.5;entryDx=0;entryDy=0;" edge="1" parent="WIyWlLk6GJQsqaUBKTNV-1" source="HBz560siM8xq41bLwgWJ-14" target="HBz560siM8xq41bLwgWJ-11">
          <mxGeometry relative="1" as="geometry">
            <Array as="points">
              <mxPoint x="90" y="270" />
              <mxPoint x="90" y="450" />
            </Array>
          </mxGeometry>
        </mxCell>
        <mxCell id="HBz560siM8xq41bLwgWJ-16" style="edgeStyle=orthogonalEdgeStyle;rounded=0;orthogonalLoop=1;jettySize=auto;html=1;entryX=0.5;entryY=0;entryDx=0;entryDy=0;" edge="1" parent="WIyWlLk6GJQsqaUBKTNV-1" source="HBz560siM8xq41bLwgWJ-14" target="HBz560siM8xq41bLwgWJ-13">
          <mxGeometry relative="1" as="geometry" />
        </mxCell>
        <mxCell id="HBz560siM8xq41bLwgWJ-14" value="Decrypt first chunk using Master AES key, GUID" style="rounded=0;whiteSpace=wrap;html=1;" vertex="1" parent="WIyWlLk6GJQsqaUBKTNV-1">
          <mxGeometry x="160" y="240" width="120" height="60" as="geometry" />
        </mxCell>
        <mxCell id="HBz560siM8xq41bLwgWJ-25" style="edgeStyle=orthogonalEdgeStyle;rounded=0;orthogonalLoop=1;jettySize=auto;html=1;entryX=0;entryY=0.5;entryDx=0;entryDy=0;" edge="1" parent="WIyWlLk6GJQsqaUBKTNV-1" source="HBz560siM8xq41bLwgWJ-21" target="HBz560siM8xq41bLwgWJ-22">
          <mxGeometry relative="1" as="geometry" />
        </mxCell>
        <mxCell id="HBz560siM8xq41bLwgWJ-21" value="Generate Dynamic Key using ECC equation for i=3" style="rounded=0;whiteSpace=wrap;html=1;" vertex="1" parent="WIyWlLk6GJQsqaUBKTNV-1">
          <mxGeometry x="160" y="524" width="120" height="60" as="geometry" />
        </mxCell>
        <mxCell id="HBz560siM8xq41bLwgWJ-31" style="edgeStyle=orthogonalEdgeStyle;rounded=0;orthogonalLoop=1;jettySize=auto;html=1;entryX=0;entryY=0.5;entryDx=0;entryDy=0;" edge="1" parent="WIyWlLk6GJQsqaUBKTNV-1" source="HBz560siM8xq41bLwgWJ-22" target="HBz560siM8xq41bLwgWJ-30">
          <mxGeometry relative="1" as="geometry" />
        </mxCell>
        <mxCell id="HBz560siM8xq41bLwgWJ-22" value="key 3" style="rounded=0;whiteSpace=wrap;html=1;" vertex="1" parent="WIyWlLk6GJQsqaUBKTNV-1">
          <mxGeometry x="354" y="524" width="120" height="60" as="geometry" />
        </mxCell>
        <mxCell id="HBz560siM8xq41bLwgWJ-26" style="edgeStyle=orthogonalEdgeStyle;rounded=0;orthogonalLoop=1;jettySize=auto;html=1;" edge="1" parent="WIyWlLk6GJQsqaUBKTNV-1" source="HBz560siM8xq41bLwgWJ-23" target="HBz560siM8xq41bLwgWJ-24">
          <mxGeometry relative="1" as="geometry" />
        </mxCell>
        <mxCell id="HBz560siM8xq41bLwgWJ-23" value="Generate Dynamic Key using ECC equation for i=n" style="rounded=0;whiteSpace=wrap;html=1;" vertex="1" parent="WIyWlLk6GJQsqaUBKTNV-1">
          <mxGeometry x="160" y="630" width="120" height="60" as="geometry" />
        </mxCell>
        <mxCell id="HBz560siM8xq41bLwgWJ-34" style="edgeStyle=orthogonalEdgeStyle;rounded=0;orthogonalLoop=1;jettySize=auto;html=1;entryX=0;entryY=0.5;entryDx=0;entryDy=0;" edge="1" parent="WIyWlLk6GJQsqaUBKTNV-1" source="HBz560siM8xq41bLwgWJ-24" target="HBz560siM8xq41bLwgWJ-33">
          <mxGeometry relative="1" as="geometry" />
        </mxCell>
        <mxCell id="HBz560siM8xq41bLwgWJ-24" value="key n" style="rounded=0;whiteSpace=wrap;html=1;" vertex="1" parent="WIyWlLk6GJQsqaUBKTNV-1">
          <mxGeometry x="354" y="630" width="120" height="60" as="geometry" />
        </mxCell>
        <mxCell id="HBz560siM8xq41bLwgWJ-29" style="edgeStyle=orthogonalEdgeStyle;rounded=0;orthogonalLoop=1;jettySize=auto;html=1;entryX=0;entryY=0.5;entryDx=0;entryDy=0;" edge="1" parent="WIyWlLk6GJQsqaUBKTNV-1" source="HBz560siM8xq41bLwgWJ-27" target="HBz560siM8xq41bLwgWJ-21">
          <mxGeometry relative="1" as="geometry">
            <Array as="points">
              <mxPoint x="610" y="500" />
              <mxPoint x="140" y="500" />
              <mxPoint x="140" y="554" />
            </Array>
          </mxGeometry>
        </mxCell>
        <mxCell id="HBz560siM8xq41bLwgWJ-27" value="Decrypt encrypted chunk with i=2" style="rounded=0;whiteSpace=wrap;html=1;" vertex="1" parent="WIyWlLk6GJQsqaUBKTNV-1">
          <mxGeometry x="550" y="420" width="120" height="60" as="geometry" />
        </mxCell>
        <mxCell id="HBz560siM8xq41bLwgWJ-32" style="edgeStyle=orthogonalEdgeStyle;rounded=0;orthogonalLoop=1;jettySize=auto;html=1;entryX=0;entryY=0.5;entryDx=0;entryDy=0;" edge="1" parent="WIyWlLk6GJQsqaUBKTNV-1" source="HBz560siM8xq41bLwgWJ-30" target="HBz560siM8xq41bLwgWJ-23">
          <mxGeometry relative="1" as="geometry">
            <Array as="points">
              <mxPoint x="620" y="600" />
              <mxPoint x="140" y="600" />
              <mxPoint x="140" y="660" />
            </Array>
          </mxGeometry>
        </mxCell>
        <mxCell id="HBz560siM8xq41bLwgWJ-30" value="Decrypt encrypted chunk with i=3" style="rounded=0;whiteSpace=wrap;html=1;" vertex="1" parent="WIyWlLk6GJQsqaUBKTNV-1">
          <mxGeometry x="560" y="524" width="120" height="60" as="geometry" />
        </mxCell>
        <mxCell id="HBz560siM8xq41bLwgWJ-36" value="" style="edgeStyle=orthogonalEdgeStyle;rounded=0;orthogonalLoop=1;jettySize=auto;html=1;" edge="1" parent="WIyWlLk6GJQsqaUBKTNV-1" source="HBz560siM8xq41bLwgWJ-33" target="HBz560siM8xq41bLwgWJ-35">
          <mxGeometry relative="1" as="geometry" />
        </mxCell>
        <mxCell id="HBz560siM8xq41bLwgWJ-33" value="Decrypt encrypted chunk with i=n" style="rounded=0;whiteSpace=wrap;html=1;" vertex="1" parent="WIyWlLk6GJQsqaUBKTNV-1">
          <mxGeometry x="570" y="630" width="120" height="60" as="geometry" />
        </mxCell>
        <mxCell id="HBz560siM8xq41bLwgWJ-38" value="" style="edgeStyle=orthogonalEdgeStyle;rounded=0;orthogonalLoop=1;jettySize=auto;html=1;" edge="1" parent="WIyWlLk6GJQsqaUBKTNV-1" source="HBz560siM8xq41bLwgWJ-35" target="HBz560siM8xq41bLwgWJ-37">
          <mxGeometry relative="1" as="geometry" />
        </mxCell>
        <mxCell id="HBz560siM8xq41bLwgWJ-35" value="Combine all decrypted chunks" style="rounded=0;whiteSpace=wrap;html=1;" vertex="1" parent="WIyWlLk6GJQsqaUBKTNV-1">
          <mxGeometry x="570" y="750" width="120" height="60" as="geometry" />
        </mxCell>
        <mxCell id="HBz560siM8xq41bLwgWJ-37" value="Stop" style="ellipse;whiteSpace=wrap;html=1;rounded=0;" vertex="1" parent="WIyWlLk6GJQsqaUBKTNV-1">
          <mxGeometry x="590" y="880" width="80" height="80" as="geometry" />
        </mxCell>
      </root>
    </mxGraphModel>
  </diagram>
</mxfile>
